<svg id="logo.svg" xmlns="http://www.w3.org/2000/svg" width="275" height="63" viewBox="0 0 275 63">
  <defs>
    <style>
      .cls-1 {
        fill: #e60000;
      }

      .cls-1, .cls-2 {
        fill-rule: evenodd;
      }
    </style>
  </defs>
  <path id="シェイプ_10" data-name="シェイプ 10" class="cls-1" d="M812.812,178H554.188A8.221,8.221,0,0,0,546,186.248v28.245a9.3,9.3,0,0,0,2.694,6.553L568.492,241V230.935h244.32A8.221,8.221,0,0,0,821,222.682V186.248A8.221,8.221,0,0,0,812.812,178Zm1.111,46.209H568.492v6.731L553.078,215.4V184.726H813.923V224.2Z" transform="translate(-546 -178)"/>
  <path id="シェイプ_11" data-name="シェイプ 11" class="cls-2" d="M756.276,196.334v19.147h-4.6v-14.1l-5.242,7.552a2.591,2.591,0,0,1-4.267,0l-5.241-7.552v14.1h-4.6V196.334a2.993,2.993,0,0,1,1.24-2.454,2.864,2.864,0,0,1,4,.722l6.739,9.708,6.738-9.708a2.864,2.864,0,0,1,4-.722A2.993,2.993,0,0,1,756.276,196.334Zm-53.9,11.35-9.08-13.082a2.863,2.863,0,0,0-4.01-.713,2.962,2.962,0,0,0-1.228,2.406v19.186h4.6v-14.1l9.075,13.076a2.863,2.863,0,0,0,4.01.713h0a2.959,2.959,0,0,0,1.228-2.405V193.582h-4.6v14.1Zm69.565-10.6a7.811,7.811,0,0,1,5.66,2.5l2.59-3.621a12.879,12.879,0,0,0-8.25-2.821c-6.67,0-12.412,4.515-12.412,11.388s5.742,11.387,12.412,11.387a12.884,12.884,0,0,0,8.25-2.82l-2.59-3.622a7.811,7.811,0,0,1-5.66,2.5A7.451,7.451,0,0,1,771.939,197.086Zm33.326,7.446c0,6.873-5.573,11.387-12.047,11.387s-12.048-4.514-12.048-11.387,5.574-11.388,12.048-11.388S805.265,197.659,805.265,204.532Zm-5.091,0c0-4.112-2.83-7.437-6.956-7.437s-6.956,3.325-6.956,7.437,2.83,7.436,6.956,7.436S800.174,208.644,800.174,204.532Zm-77.38-9.01c2,4.99,7.994,19.959,7.994,19.959h-4.915l-1.948-5h-8.859l-1.949,5h-4.871l7.994-19.959A3.447,3.447,0,0,1,722.794,195.522Zm-0.319,11.235-2.98-7.649-2.979,7.649h5.959Zm-139.006,2.811a5.8,5.8,0,0,1-6.031,5.913h-11.8a1.786,1.786,0,0,1-1.845-1.861V195.444a1.786,1.786,0,0,1,1.845-1.862h10.5c3.6,0,6.09,2.468,6.09,5.431a5.43,5.43,0,0,1-3.957,5.2A5.348,5.348,0,0,1,583.469,209.568ZM568.4,202.451h6a2.519,2.519,0,0,0,2.745-2.463h0a2.519,2.519,0,0,0-2.745-2.464h-6v4.927Zm10.029,6.406a2.737,2.737,0,0,0-2.965-2.683H568.4v5.365h7.064A2.737,2.737,0,0,0,578.424,208.857Zm43.955-1.173L613.3,194.6a2.863,2.863,0,0,0-4.01-.713,2.962,2.962,0,0,0-1.228,2.406v19.186h4.6v-14.1l9.075,13.076a2.863,2.863,0,0,0,4.01.713h0a2.959,2.959,0,0,0,1.228-2.405V193.582h-4.6v14.1Zm51.793,7.8h4.775v-21.9h-4.775v21.9Zm-23.548-11.059c0,7.215-5.263,11.059-11.234,11.059h-6.132a1.786,1.786,0,0,1-1.845-1.861V195.444a1.786,1.786,0,0,1,1.845-1.862h6.187C645.416,193.582,650.624,197.061,650.624,204.422Zm-5.05,0c0-5.231-3.863-6.9-7.12-6.9h-2.44v14.015h2.331C642.182,211.539,645.574,209.507,645.574,204.422Zm-47.042-8.9,7.993,19.959h-4.914l-1.948-5H590.8l-1.949,5h-4.871l7.994-19.959A3.447,3.447,0,0,1,598.532,195.522Zm-0.32,11.235-2.979-7.649-2.979,7.649h5.958Zm66.43-11.235,7.994,19.959h-4.915l-1.948-5h-8.859l-1.948,5H650.1l7.993-19.959A3.447,3.447,0,0,1,664.642,195.522Zm-0.319,11.235-2.979-7.649-2.98,7.649h5.959Z" transform="translate(-546 -178)"/>
</svg>
